# xmcd
#
# Track frame offsets:
#	150
#	11705
#	42160
#	52172
#	74661
#	86789
#	91150
#	103380
#
# Disc length: 1551 seconds
#
# Revision: 0
# Processed by: cddbd v1.5PL3 Copyright (c) Steve Scherf et al.
# Submitted via: dBpowerAMP V4.0
#
DISCID=70060d08
DTITLE=Various Artist - Le più belle canzoni dei piccoli
DYEAR=2004
DGENRE=Easy Listening
TTITLE0=La pecora nel bosco
TTITLE1=La pecora nel bosco (story)
TTITLE2=La macchina del capo
TTITLE3=La macchina del capo (story)
TTITLE4=Il cowboy Piero
TTITLE5=Il cowboy Piero (story)
TTITLE6=La danza del serpente
TTITLE7=La danza del serpente (instr)
EXTD=
EXTT0=
EXTT1=
EXTT2=
EXTT3=
EXTT4=
EXTT5=
EXTT6=
EXTT7=
PLAYORDER=
